# xmcd
# 
# Track frame offsets:
#     165
#     17814
#     32295
#     49933
#     64271
#     78179
#     94021
#     112458
#     123907
#     139449
#     157432
#     173221
# 
# Disc length: 2480
# 
# Revision: 6
# Processed by: cddbd v1.5.2PL0 Copyright (c) Steve Scherf et al.
# Submitted via: BonkEnc v1.0.5
# 
DISCID=a909ae0c
DTITLE=Milionário and José Rico - Milionário and José Rico Vol 23 - As Gargantas de Ouro Do Brasil)
DYEAR=1997
DGENRE=Sertanejo
TTITLE0=Meu Martírio
TTITLE1=Boneca Cobiçada
TTITLE2=O Último Julgamento
TTITLE3=No Colo Da Noite
TTITLE4=Pombinha Branca
TTITLE5=Ébrio De Amor
TTITLE6=Caminheiro
TTITLE7=Sessenta Dias Apaixonado
TTITLE8=Se Eu Não Puder Te Esquecer
TTITLE9=O Vai E Vem Do Carreiro
TTITLE10=Seresteiro Da Lua
TTITLE11=Pé Da Letra
EXTD=
EXTT0=
EXTT1=
EXTT2=
EXTT3=
EXTT4=
EXTT5=
EXTT6=
EXTT7=
EXTT8=
EXTT9=
EXTT10=
EXTT11=
PLAYORDER=
